<?xml version="1.0" encoding="utf-8"?><svg viewBox="0 0 48 48" xmlns="http://www.w3.org/2000/svg" xmlns:xlink="http://www.w3.org/1999/xlink"><style>:root>svg{display:none}:root>svg:target{display:block}</style><svg viewBox="0 0 25 25" id="arrow-next" xmlns="http://www.w3.org/2000/svg"><path fill="#fff" d="M17.5 5.999l-.707.707 5.293 5.293H1v1h21.086l-5.294 5.295.707.707L24 12.499l-6.5-6.5z" data-name="Right"/></svg><svg viewBox="0 0 25 25" id="arrow-prev" xmlns="http://www.w3.org/2000/svg"><path fill="#fff" d="M24 12.001H2.914l5.294-5.295-.707-.707L1 12.501l6.5 6.5.707-.707-5.293-5.293H24v-1z" data-name="Left"/></svg><svg fill="none" viewBox="0 0 48 48" id="business" xmlns="http://www.w3.org/2000/svg"><path d="M25.03 13.914l-10.99-1.67c-.51-.079-1.03.06-1.42.39-.39.341-.62.83-.62 1.34v21.07c0 .551.45 1.001 1 1.001h3.251v-5.25c0-.97.78-1.75 1.75-1.75h2.501c.97 0 1.75.78 1.75 1.75v5.25h4.25v-20.4a1.756 1.756 0 00-1.471-1.731zm-7.53 12.88H16a.75.75 0 010-1.5h1.5a.75.75 0 010 1.5zm0-3H16a.75.75 0 010-1.5h1.5a.75.75 0 010 1.5zm0-3H16a.75.75 0 010-1.5h1.5a.75.75 0 010 1.5zm0-3H16a.75.75 0 010-1.5h1.5a.75.75 0 010 1.5zm5 9H21a.75.75 0 010-1.5h1.5a.75.75 0 010 1.5zm0-3H21a.75.75 0 010-1.5h1.5a.75.75 0 010 1.5zm0-3H21a.75.75 0 010-1.5h1.5a.75.75 0 010 1.5zm0-3H21a.75.75 0 010-1.5h1.5a.75.75 0 010 1.5z" fill="#232536"/><path d="M34.62 22.887l-7.12-1.491v14.649h6.75c.965 0 1.75-.785 1.75-1.75v-9.698c0-.827-.563-1.53-1.38-1.71zm-2.37 10.158h-1.5a.75.75 0 010-1.5h1.5a.75.75 0 010 1.5zm0-3h-1.5a.75.75 0 010-1.5h1.5a.75.75 0 010 1.5zm0-3h-1.5a.75.75 0 010-1.5h1.5a.75.75 0 010 1.5z" fill="#FFD050"/></svg><svg fill="none" viewBox="0 0 23 24" id="economy" xmlns="http://www.w3.org/2000/svg"><g clip-path="url(#dclip0_533_2312)"><path d="M5.116 15.425H2.532c-.932 0-1.69.793-1.69 1.767v5.723c0 .598.465 1.085 1.038 1.085h3.888c.572 0 1.037-.487 1.037-1.085v-5.723c0-.974-.758-1.767-1.69-1.767zM12.7 11.95h-2.584c-.932 0-1.69.792-1.69 1.766v9.199c0 .598.465 1.085 1.038 1.085h3.888c.572 0 1.037-.487 1.037-1.085v-9.2c0-.973-.758-1.766-1.69-1.766zM20.426 7.989h-2.584c-.932 0-1.69.792-1.69 1.766v13.16c0 .598.466 1.085 1.038 1.085h3.888c.572 0 1.038-.487 1.038-1.085V9.755c0-.974-.758-1.766-1.69-1.766z" fill="#232536"/><path d="M18.368.668a1.475 1.475 0 00-1.375-.662l-4.88.472a1.503 1.503 0 00-1.236.915 1.627 1.627 0 00.14 1.576l.272.402-6.057 4.376-.006.004a2.06 2.06 0 00-.805 1.335c-.088.542.03 1.089.334 1.538a1.95 1.95 0 001.614.87 1.9 1.9 0 001.13-.376l6.067-4.382.282.415a1.478 1.478 0 001.375.662 1.503 1.503 0 001.236-.914l2.049-4.655a1.626 1.626 0 00-.14-1.576z" fill="#FFD050"/></g><defs><clipPath id="dclip0_533_2312"><path fill="#fff" d="M0 0h22.956v24H0z"/></clipPath></defs></svg><svg viewBox="0 0 16 17" id="facebook" xmlns="http://www.w3.org/2000/svg"><path d="M16 8.548c0-4.419-3.58-8-8-8s-8 3.581-8 8a8.003 8.003 0 006.75 7.904V10.86H4.718V8.548H6.75V6.786c0-2.005 1.194-3.112 3.022-3.112.875 0 1.79.156 1.79.156v1.967h-1.008c-.994 0-1.304.617-1.304 1.25v1.501h2.219l-.355 2.313H9.25v5.59A8.003 8.003 0 0016 8.549z"/></svg><svg viewBox="0 0 16 17" id="instagram" xmlns="http://www.w3.org/2000/svg"><path d="M8.004 4.427c-2.272 0-4.104 1.817-4.104 4.07 0 2.252 1.832 4.069 4.104 4.069 2.271 0 4.103-1.817 4.103-4.07 0-2.252-1.832-4.069-4.103-4.069zm0 6.715c-1.468 0-2.668-1.186-2.668-2.646 0-1.459 1.196-2.645 2.668-2.645 1.471 0 2.667 1.186 2.667 2.645 0 1.46-1.2 2.646-2.667 2.646zm5.228-6.881a.95.95 0 01-.957.949.951.951 0 01-.957-.95c0-.524.428-.949.957-.949.529 0 .957.425.957.95zm2.718.963c-.06-1.272-.354-2.398-1.293-3.326C13.721.97 12.586.68 11.304.616 9.982.542 6.02.542 4.7.616c-1.279.06-2.414.35-3.354 1.279C.407 2.823.118 3.949.054 5.22c-.075 1.31-.075 5.239 0 6.549.06 1.271.353 2.398 1.292 3.326.94.928 2.072 1.218 3.354 1.282 1.321.074 5.282.074 6.604 0 1.282-.06 2.417-.351 3.353-1.282.936-.928 1.229-2.055 1.293-3.326.075-1.31.075-5.235 0-6.545zm-1.707 7.951a2.69 2.69 0 01-1.522 1.509c-1.053.414-3.553.319-4.717.319-1.165 0-3.668.092-4.718-.32a2.69 2.69 0 01-1.522-1.508c-.418-1.045-.321-3.524-.321-4.679 0-1.154-.093-3.637.321-4.678a2.69 2.69 0 011.522-1.509c1.053-.414 3.553-.319 4.718-.319 1.164 0 3.667-.092 4.717.32.7.275 1.24.81 1.522 1.508.418 1.045.321 3.524.321 4.678 0 1.155.097 3.638-.321 4.679z"/></svg><svg viewBox="0 0 20 20" id="linkedin" xmlns="http://www.w3.org/2000/svg"><path d="M18.328 18.333l.005-.001v-6.113c0-2.99-.644-5.293-4.14-5.293-1.68 0-2.808.922-3.269 1.796h-.048V7.205H7.56v11.127h3.451v-5.51c0-1.45.275-2.853 2.072-2.853 1.77 0 1.797 1.655 1.797 2.946v5.418h3.447zM1.941 7.206h3.456v11.127H1.94V7.206zM3.667 1.666a2.002 2.002 0 00-2.001 2.001c0 1.105.897 2.02 2.001 2.02 1.105 0 2.002-.915 2.002-2.02a2.003 2.003 0 00-2.002-2.001z"/></svg><svg fill="none" viewBox="0 0 23 23" id="startup" xmlns="http://www.w3.org/2000/svg"><g clip-path="url(#hclip0_533_2350)"><path d="M5.85 6.211l-1.992.154a1.778 1.778 0 00-1.355.798L.205 10.638c-.233.352-.27.792-.099 1.178.17.385.521.654.938.719l1.824.282c.427-2.265 1.449-4.524 2.983-6.606zM10.184 20.132l.282 1.824A1.226 1.226 0 0011.684 23c.238 0 .473-.07.679-.205l3.475-2.298c.464-.307.755-.8.798-1.355l.154-1.993c-2.082 1.534-4.341 2.556-6.606 2.983zM9.497 18.866c.063 0 .127-.005.19-.015a13.196 13.196 0 002.736-.776l-7.499-7.499a13.2 13.2 0 00-.775 2.736c-.063.374.063.755.33 1.024l4.185 4.184c.223.222.523.346.833.346z" fill="#FFD050"/><path d="M21.166 10.197c1.835-3.547 1.903-7.296 1.807-9.055A1.18 1.18 0 0021.858.027 18.54 18.54 0 0020.849 0c-1.965 0-5.076.298-8.046 1.834-2.36 1.22-5.456 3.909-7.282 7.442a.676.676 0 01.063.054l8.086 8.086c.02.02.037.041.054.063 3.533-1.826 6.221-4.921 7.442-7.282zm-7.793-5.335a3.373 3.373 0 014.765 0c.636.637.986 1.483.986 2.383 0 .9-.35 1.746-.986 2.382a3.36 3.36 0 01-2.383.985 3.358 3.358 0 01-2.382-.985 3.347 3.347 0 01-.987-2.382c0-.9.35-1.746.987-2.383z" fill="#232536"/><path d="M14.326 8.674a2.024 2.024 0 003.451-1.43c0-.54-.21-1.047-.592-1.429a2.015 2.015 0 00-1.43-.59c-.517 0-1.035.196-1.429.59-.381.382-.592.89-.592 1.43 0 .54.21 1.047.592 1.429z" fill="#232536"/><path d="M.688 18.954a.671.671 0 00.476-.198l2.2-2.2a.674.674 0 10-.953-.952l-2.2 2.2a.674.674 0 00.477 1.15zM5.38 17.62a.674.674 0 00-.953 0l-4.23 4.23a.674.674 0 00.953.953l4.23-4.23a.674.674 0 000-.953zM6.442 19.636l-2.2 2.2a.674.674 0 10.953.953l2.2-2.2a.674.674 0 00-.953-.953z" fill="#FFD050"/></g><defs><clipPath id="hclip0_533_2350"><path fill="#fff" d="M0 0h23v23H0z"/></clipPath></defs></svg><svg fill="none" viewBox="0 0 24 24" id="technology" xmlns="http://www.w3.org/2000/svg"><g clip-path="url(#iclip0_533_2339)"><path d="M15.518 7.031c0 .775.63 1.407 1.406 1.407h4.18a9.064 9.064 0 00-.672-2.813h-3.508c-.775 0-1.406.631-1.406 1.406z" fill="#232536"/><path d="M6.377 24h8.438a.703.703 0 00.703-.703v-3.61h1.406v-4.57L9.893 9.844H3.564a.703.703 0 00-.703.703 9.154 9.154 0 002.813 6.596v6.154c0 .389.314.703.703.703z" fill="#FFD050"/><path d="M12.002 0a.703.703 0 00-.703.703v.703H8.357A2.106 2.106 0 006.377 0c-1.163 0-2.11.946-2.11 2.11 0 1.163.947 2.109 2.11 2.109.915 0 1.689-.59 1.98-1.407h2.942v2.813h-7.16a2.106 2.106 0 00-1.98-1.406c-1.164 0-2.157.946-2.157 2.11 0 1.162.993 2.109 2.156 2.109.916 0 1.689-.59 1.98-1.407h7.16v2.11l6.75 5.062a.703.703 0 01.282.563v4.921h.703c1.163 0 2.11-.946 2.11-2.109v-3.515h2.156a.703.703 0 00.585-1.094l-2.13-3.125h-4.83A2.815 2.815 0 0114.11 7.03a2.815 2.815 0 012.813-2.812h2.766C18.063 1.686 15.23 0 12.002 0z" fill="#232536"/></g><defs><clipPath id="iclip0_533_2339"><path fill="#fff" d="M0 0h24v24H0z"/></clipPath></defs></svg><svg viewBox="0 0 16 14" id="twitter" xmlns="http://www.w3.org/2000/svg"><path d="M14.355 3.672c.01.142.01.284.01.426 0 4.335-3.299 9.33-9.33 9.33A9.267 9.267 0 010 11.956c.264.03.518.04.792.04a6.567 6.567 0 004.071-1.4 3.285 3.285 0 01-3.066-2.274c.203.03.406.05.62.05.294 0 .588-.04.862-.111A3.28 3.28 0 01.65 5.042v-.04c.437.244.945.396 1.483.416A3.277 3.277 0 01.67 2.688c0-.61.162-1.168.447-1.656a9.321 9.321 0 006.761 3.432 3.702 3.702 0 01-.081-.751 3.278 3.278 0 013.28-3.28c.943 0 1.796.396 2.395 1.036a6.456 6.456 0 002.081-.792 3.27 3.27 0 01-1.441 1.807c.66-.07 1.3-.254 1.888-.508a7.048 7.048 0 01-1.645 1.696z"/></svg><svg viewBox="0 0 20 23" id="vk" xmlns="http://www.w3.org/2000/svg"><path d="M18.567 6.746c.13-.43 0-.746-.628-.746h-2.077c-.53 0-.773.272-.903.574 0 0-1.059 2.513-2.554 4.142-.483.471-.705.622-.97.622-.13 0-.332-.15-.332-.58V6.746c0-.516-.148-.746-.585-.746H7.252c-.332 0-.53.24-.53.464 0 .488.749.602.826 1.977v2.983c0 .654-.12.774-.384.774-.706 0-2.42-2.523-3.436-5.41C3.524 6.226 3.323 6 2.79 6H.712C.12 6 0 6.272 0 6.574c0 .536.705 3.2 3.284 6.72C5.002 15.697 7.42 17 9.622 17c1.323 0 1.485-.289 1.485-.787 0-2.296-.12-2.513.543-2.513.307 0 .836.151 2.07 1.31 1.412 1.375 1.644 1.99 2.434 1.99h2.078c.593 0 .892-.289.72-.86-.396-1.2-3.066-3.667-3.186-3.832-.306-.385-.218-.557 0-.9.004-.004 2.54-3.483 2.801-4.662z"/></svg></svg>